<svg width="24" height="25" viewBox="0 0 24 25" fill="none" xmlns="http://www.w3.org/2000/svg">
<path d="M12 23.5C10.4565 22.1835 9.02591 20.7402 7.72304 19.1852C5.76786 16.85 3.44609 13.3722 3.44609 10.0582C3.44524 8.36568 3.9465 6.71097 4.88644 5.30347C5.82637 3.89596 7.16272 2.79893 8.72637 2.1512C10.29 1.50348 12.0107 1.33418 13.6706 1.66473C15.3305 1.99527 16.855 2.81081 18.0512 4.00813C18.8477 4.80103 19.4789 5.74401 19.9085 6.78249C20.3381 7.82098 20.5574 8.93435 20.5539 10.0582C20.5539 13.3722 18.2321 16.85 16.2769 19.1852C14.974 20.7402 13.5434 22.1835 12 23.5ZM12 6.39222C11.0277 6.39222 10.0953 6.77846 9.40776 7.46596C8.72026 8.15346 8.33403 9.08591 8.33403 10.0582C8.33403 11.0304 8.72026 11.9629 9.40776 12.6504C10.0953 13.3379 11.0277 13.7241 12 13.7241C12.9723 13.7241 13.9047 13.3379 14.5922 12.6504C15.2797 11.9629 15.6659 11.0304 15.6659 10.0582C15.6659 9.08591 15.2797 8.15346 14.5922 7.46596C13.9047 6.77846 12.9723 6.39222 12 6.39222Z" fill="#F8028E"/>
</svg>
