<svg width="24" height="24" viewBox="0 0 24 24" fill="none" xmlns="http://www.w3.org/2000/svg">
<g clip-path="url(#clip0_0_437)">
<path d="M10.1467 13.7601C11.5383 15.1718 13.2222 16.2618 15.08 16.9534L17.5933 14.9534C17.6678 14.9021 17.7562 14.8746 17.8467 14.8746C17.9371 14.8746 18.0255 14.9021 18.1 14.9534L22.7667 17.9601C22.9438 18.0666 23.0938 18.2128 23.2047 18.3873C23.3157 18.5617 23.3845 18.7595 23.4059 18.9652C23.4272 19.1708 23.4004 19.3785 23.3277 19.572C23.2549 19.7655 23.1382 19.9394 22.9867 20.0801L20.8 22.2401C20.4868 22.5495 20.102 22.7766 19.6797 22.901C19.2574 23.0255 18.8109 23.0435 18.38 22.9534C14.0815 22.0656 10.1194 19.9864 6.94666 16.9534C3.84432 13.8902 1.69751 9.99264 0.766663 5.7334C0.674707 5.30916 0.6939 4.86836 0.82238 4.45372C0.950861 4.03908 1.18427 3.66465 1.5 3.36674L3.76666 1.18007C3.90693 1.03593 4.07799 0.925387 4.26703 0.856722C4.45607 0.788057 4.65819 0.763049 4.85827 0.78357C5.05835 0.80409 5.25119 0.869608 5.42235 0.975217C5.59352 1.08083 5.73858 1.22379 5.84666 1.3934L8.95333 6.00007C9.00692 6.07241 9.03584 6.16005 9.03584 6.25007C9.03584 6.34009 9.00692 6.42773 8.95333 6.50007L6.90666 8.96007C7.61705 10.7807 8.72382 12.4204 10.1467 13.7601V13.7601Z" fill="#F8028E"/>
</g>
<defs>
<clipPath id="clip0_0_437">
<rect width="24" height="24" fill="white"/>
</clipPath>
</defs>
</svg>
