<svg width="50" height="50" viewBox="0 0 50 50" fill="none" xmlns="http://www.w3.org/2000/svg">
<g clip-path="url(#clip0_0_242)">
<path d="M42.2404 21.8238C42.9327 22.3973 43.6206 22.8591 44.167 23.452C44.7134 24.0448 45.1214 24.7643 45.6306 25.4867C45.7795 25.3512 45.9477 25.1888 46.1249 25.0399C46.8485 24.4187 47.6689 24.2504 48.5533 24.6034C49.4377 24.9564 49.9722 25.6461 49.9797 26.6039C50.0065 30.2534 50.0065 33.9034 49.9797 37.5539C49.9707 38.6994 49.128 39.4904 47.9577 39.5172C46.7875 39.544 45.6246 39.544 44.4574 39.5172C43.9526 39.5068 43.7591 39.6662 43.768 40.1965C43.7978 41.9085 43.7978 43.6215 43.768 45.3355C43.7591 45.8792 43.9094 46.125 44.4782 46.0595C44.7748 46.0169 45.0762 46.0209 45.3715 46.0714C45.5487 46.1086 45.6961 46.2948 45.8554 46.414C45.7184 46.563 45.5844 46.8192 45.443 46.8236C44.0792 46.8544 42.7144 46.8544 41.3485 46.8236C41.2071 46.8236 41.0701 46.56 40.9317 46.42C41.0575 46.2925 41.1934 46.1754 41.3381 46.0699C41.4096 46.0237 41.5317 46.0565 41.6359 46.0535C43.0072 46.0163 43.0072 46.0163 43.0072 44.6608C43.0072 43.1965 42.9789 41.7307 43.0206 40.2665C43.0384 39.6513 42.8032 39.5053 42.2434 39.5217C40.68 39.5465 39.1162 39.5465 37.5519 39.5217C37.0025 39.5112 36.8074 39.6855 36.8223 40.2441C36.8491 42.1553 36.8089 44.0679 36.8432 45.9805C36.8566 46.6732 36.602 46.8892 35.929 46.8743C34.3165 46.84 32.7025 46.8743 31.0886 46.8609C30.2816 46.8609 30.1521 46.6777 30.3828 45.9224C30.6047 45.1955 31.038 44.6056 31.7586 44.3613C32.244 44.1975 32.3318 43.9443 32.3288 43.4944C32.3125 40.8623 32.3169 38.2302 32.3288 35.5996C32.3288 33.0822 34.0738 31.3513 36.596 31.3408C37.1916 31.3408 37.7737 31.3408 38.466 31.3408C38.3961 30.6839 38.338 30.1313 38.2755 29.5354C38.1429 29.52 38.009 29.52 37.8764 29.5354C36.3876 29.9361 34.8838 29.8736 33.3711 29.6501C32.5158 29.5153 31.6521 29.4411 30.7863 29.4282C26.8646 29.4044 22.9438 29.4044 19.0241 29.4282C18.2525 29.4398 17.483 29.5105 16.7223 29.6397C15.0845 29.9034 13.466 29.9376 11.7613 29.4416L11.5409 31.3393C12.2586 31.3393 12.872 31.3393 13.4854 31.3393C15.9138 31.3557 17.6751 33.1015 17.6826 35.5102C17.6915 38.1666 17.6915 40.8236 17.6826 43.481C17.6826 43.9279 17.7615 44.1781 18.2469 44.3524C19.0747 44.6503 19.5154 45.343 19.7015 46.198C19.7909 46.6091 19.636 46.8415 19.2251 46.8445C17.3878 46.8549 15.5505 46.8519 13.7162 46.8445C13.1683 46.8445 13.1817 46.4334 13.1817 46.0505C13.1817 44.1632 13.1534 42.2759 13.1951 40.3901C13.21 39.7064 13.0045 39.4874 12.3166 39.5083C10.8039 39.5544 9.28821 39.5395 7.77401 39.5083C7.22312 39.4993 6.97596 39.6304 6.99085 40.2531C7.03254 41.9413 7.03254 43.6295 6.99085 45.3177C6.97745 45.9344 7.21716 46.1042 7.7755 46.0505C8.07255 46.0128 8.37353 46.0188 8.66883 46.0684C8.81772 46.0982 8.94428 46.2874 9.07977 46.4051C8.94279 46.554 8.80879 46.8117 8.66735 46.8147C7.30352 46.8455 5.9387 46.8455 4.57289 46.8147C4.43145 46.8147 4.29447 46.5525 4.15451 46.411C4.28072 46.2835 4.41662 46.166 4.56098 46.0595C4.63245 46.0148 4.75454 46.0476 4.85876 46.0446C6.2345 46.0073 6.23449 46.0073 6.23449 44.6622C6.23449 43.1727 6.21514 41.6831 6.24492 40.1935C6.25534 39.6691 6.07369 39.4978 5.56152 39.5098C4.44485 39.5351 3.32818 39.5276 2.21002 39.5098C0.822369 39.5023 0.0153892 38.7084 0.00943366 37.3349C-0.00347008 33.8841 -0.00347008 30.4327 0.00943366 26.9808C0.00943366 25.7698 0.49779 24.955 1.44473 24.5975C2.4944 24.2057 3.3922 24.4753 4.13962 25.2916C4.21084 25.3618 4.28589 25.4279 4.36445 25.4897C4.85727 24.7941 5.27565 24.0582 5.83398 23.4505C6.39232 22.8427 7.0653 22.4003 7.74274 21.8343C6.48761 21.0001 5.74763 19.7876 5.48112 18.298C5.13569 16.3704 5.66723 14.7289 7.29608 13.5804C9.00384 12.3783 10.8694 12.0715 12.7544 13.1246C13.3648 13.4657 13.7713 14.1673 14.2805 14.6917C14.6095 15.0298 14.9237 15.3963 15.3063 15.6599C15.689 15.9236 15.7828 16.3213 15.3063 16.4747C14.2805 16.8099 14.2447 17.5442 14.3058 18.4008C14.34 18.8938 14.2968 19.3928 14.3147 19.8903C14.3624 21.1774 13.8412 22.1352 12.732 22.801C12.5257 22.9518 12.3774 23.169 12.3122 23.4162C12.2314 23.754 12.1879 24.0997 12.1826 24.447C12.0992 25.7593 12.1707 26.0319 13.478 26.3358C14.5872 26.592 15.7723 26.5399 16.9247 26.5756C17.5888 26.5965 18.2647 26.4431 18.9199 26.5041C19.3957 26.5326 19.8539 26.6949 20.2417 26.9724C20.6294 27.2499 20.9309 27.6313 21.1115 28.0727C21.2857 28.4749 21.5016 28.6253 21.9393 28.6208C23.9761 28.6 26.0115 28.6208 28.0438 28.597C28.2865 28.597 28.6587 28.448 28.7451 28.2618C29.4538 26.7335 30.7119 26.3388 32.2499 26.4624C33.1626 26.5354 34.0842 26.7171 34.9865 26.6501C35.7533 26.592 36.5096 26.2747 37.2526 26.0185C37.7171 25.8591 37.9583 25.5121 37.8482 24.9758C37.8009 24.6804 37.7815 24.3811 37.7901 24.0821C37.7737 23.4058 37.5757 22.9053 36.9116 22.5269C36.0913 22.0607 35.7071 21.231 35.6922 20.2702C35.6788 19.4256 35.6535 18.5795 35.6922 17.7379C35.7176 17.1867 35.5434 16.8709 35.0178 16.6639C34.7602 16.5611 34.5845 16.2543 34.3731 16.0398C34.5835 15.9012 34.7867 15.752 34.982 15.5929C35.1994 15.4007 35.4838 15.2115 35.5776 14.9613C36.3786 12.8193 39.1316 11.9136 41.6076 12.9563C45.1095 14.431 45.7214 19.1024 42.7288 21.4723C42.5828 21.5959 42.4116 21.6987 42.2404 21.8238ZM0.822369 32.0231C0.822369 33.6854 0.822369 35.3473 0.822369 37.0087C0.822369 38.3494 1.20204 38.7232 2.55544 38.7247C5.80222 38.7247 9.05049 38.7247 12.3002 38.7247C12.5966 38.733 12.8928 38.7035 13.1817 38.6368C13.8919 38.4507 14.2537 37.9472 14.2909 37.2307C14.2982 36.8922 14.1888 36.5616 13.9811 36.2944C13.7734 36.0272 13.4801 35.8397 13.1504 35.7634C12.8562 35.7069 12.5564 35.6844 12.2571 35.6964C9.75275 35.6964 7.24694 35.6726 4.74411 35.7053C4.02498 35.7158 3.79867 35.4685 3.8076 34.758C3.83887 32.1542 3.82696 29.5444 3.81504 26.9465C3.81504 25.8755 3.19864 25.238 2.25915 25.2633C1.34944 25.2856 0.82088 25.9008 0.816414 26.9674C0.817903 28.6536 0.822369 30.3398 0.822369 32.0231ZM49.1786 32.0767C49.1786 30.316 49.1935 28.5553 49.1786 26.7946C49.1652 25.7012 48.2853 25.0339 47.2758 25.305C46.5909 25.4867 46.186 26.0781 46.183 26.9674C46.174 29.522 46.183 32.0767 46.183 34.6313C46.183 35.686 46.174 35.6919 45.0901 35.6934C42.5367 35.6934 39.9817 35.6934 37.4283 35.6934C36.4144 35.6934 35.7399 36.3027 35.7146 37.1711C35.6908 38.0648 36.3816 38.7128 37.4342 38.7173C40.8557 38.7312 44.2802 38.7312 47.7076 38.7173C48.7617 38.7173 49.1965 38.26 49.1965 37.2083C49.1846 35.5028 49.1786 33.7912 49.1786 32.0797V32.0767ZM10.6937 31.2783C10.7563 30.7956 10.795 30.3547 10.8724 29.9198C10.9707 29.3731 10.8322 29.026 10.2992 28.7281C8.78497 27.876 7.73232 26.5682 7.01468 24.9922C6.91758 24.7926 6.85706 24.5771 6.83601 24.3561C6.83756 24.2868 6.85651 24.2189 6.89111 24.1588C6.92571 24.0987 6.97486 24.0482 7.03403 24.012C7.11256 23.9981 7.19317 24.0015 7.27029 24.0218C7.34741 24.0421 7.4192 24.0789 7.4807 24.1297C7.59865 24.2877 7.69017 24.4638 7.75168 24.6511C8.3919 26.0364 9.30459 27.1923 10.6208 27.9893C12.6293 29.2033 14.7614 29.2673 16.9694 28.7102C16.8488 27.4828 16.8488 27.4917 15.8125 27.5185C13.6447 27.5737 11.8104 26.884 10.5195 25.0622C10.317 24.7747 9.85697 24.4262 10.3275 24.0657C10.4391 23.9793 10.8843 24.3278 11.1761 24.4753C11.2374 24.4891 11.2996 24.4981 11.3622 24.5021C11.395 24.0821 11.4263 23.6679 11.4516 23.3328C10.7875 23.0825 10.2471 22.8248 9.67979 22.6818C9.25546 22.5761 8.74328 22.4807 8.36361 22.6252C7.79035 22.8604 7.26502 23.1986 6.81367 23.6233C4.52376 25.7206 4.48505 28.448 4.68902 31.2783H10.6937ZM45.3671 31.2917C45.3671 30.249 45.4385 29.2777 45.3537 28.3214C45.1318 25.8189 44.0881 23.7946 41.7357 22.6491C41.3847 22.4803 40.9869 22.4351 40.6071 22.521C39.9296 22.7146 39.2909 23.0498 38.5375 23.3685C38.5732 23.6828 38.6179 24.088 38.6477 24.3591L39.7346 24.0612C39.6453 24.4083 39.6438 24.8194 39.4487 25.0935C38.1757 26.8899 36.3548 27.5647 34.2182 27.5185C33.1492 27.4947 33.0941 27.5394 33.0599 28.6834C33.1658 28.7352 33.2759 28.778 33.3889 28.8115C37.0397 29.5861 40.4448 28.4242 42.2047 24.7419C42.2786 24.5317 42.3787 24.3315 42.5024 24.1461C42.5577 24.0882 42.626 24.0445 42.7016 24.0186C42.7773 23.9926 42.8581 23.9853 42.9372 23.9971C43.0047 24.0396 43.0606 24.0982 43.0998 24.1676C43.139 24.237 43.1604 24.3151 43.162 24.3949C43.1295 24.6401 43.0539 24.8776 42.9387 25.0965C42.2265 26.6413 41.0693 27.9381 39.6155 28.8204C39.3981 28.953 39.1331 29.2301 39.1286 29.4446C39.1152 30.0523 39.2254 30.6616 39.2909 31.2917H45.3671ZM13.9693 44.1349C14.8626 44.1349 15.6532 44.1632 16.4394 44.1111C16.5883 44.1007 16.8533 43.7804 16.8548 43.6002C16.8801 40.8206 16.9099 38.0395 16.8548 35.2585C16.8443 34.4503 16.5216 33.6776 15.9542 33.1022C15.3869 32.5269 14.619 32.1935 13.8115 32.172C11.456 32.1035 9.09615 32.1571 6.73923 32.1437C6.23896 32.1437 6.15558 32.3821 6.23152 32.8036C6.33996 33.3831 6.64642 33.9068 7.0984 34.2851C7.55039 34.6634 8.11977 34.8727 8.70903 34.8771C10.1726 34.9024 11.6377 34.8771 13.1013 34.889C13.3216 34.889 13.5718 34.8697 13.7549 34.9635C14.1004 35.1399 14.3994 35.3953 14.6277 35.709C14.856 36.0226 15.0072 36.3857 15.069 36.7688C15.1308 37.1519 15.1015 37.5442 14.9833 37.9138C14.8652 38.2834 14.6616 38.6199 14.3892 38.896C14.212 39.0793 13.9931 39.3295 13.9886 39.5529C13.9529 41.0396 13.9693 42.5262 13.9693 44.1349ZM36.0347 44.1349C36.0347 42.7943 36.0138 41.5386 36.0436 40.2814C36.06 39.6602 35.9498 39.1761 35.4689 38.6994C35.1475 38.3953 34.9373 37.9921 34.872 37.5543C34.8067 37.1166 34.89 36.6696 35.1086 36.2848C35.5195 35.4893 36.0451 34.8131 37.1469 34.8712C38.5316 34.9471 39.9252 34.9129 41.3158 34.8801C42.7883 34.8458 43.8707 33.6527 43.7308 32.254C43.6476 32.2112 43.5581 32.1821 43.4658 32.1676C41.0091 32.1676 38.5524 32.1035 36.0972 32.1914C35.3139 32.2229 34.5725 32.5535 34.0253 33.115C33.4781 33.6766 33.1667 34.4266 33.1552 35.2108C33.0926 38.0142 33.1269 40.8206 33.1552 43.6255C33.1552 43.7968 33.383 44.1051 33.5185 44.1126C34.3195 44.1558 35.1384 44.132 36.0317 44.132L36.0347 44.1349ZM14.1524 16.1947C12.735 13.5789 11.3682 12.8729 9.1825 13.5298C7.16505 14.1361 6.00372 15.7955 6.20472 17.7736C6.39232 19.5448 7.48516 21.0373 8.73584 21.1639C8.7269 20.519 9.08424 19.8576 8.19239 19.3928C7.56259 19.0636 7.71148 18.0373 8.34128 17.6411C8.50059 17.5398 8.70308 17.4564 8.78795 17.3089C9.52048 16.1172 9.78402 16.0323 11.1791 16.1768C12.1275 16.2736 13.0864 16.1947 14.1524 16.1947ZM41.2503 21.1833C42.6245 20.9658 43.7397 19.3183 43.8082 17.5219C43.8841 15.5288 42.6335 13.9603 40.5788 13.4672C38.4214 12.9563 37.0337 13.7339 35.9052 16.1589C36.1393 16.2253 36.3799 16.2663 36.6228 16.2811C37.5608 16.2438 38.4973 16.1738 39.4353 16.1202C40.2259 16.0755 40.8334 16.3168 41.1461 17.1257C41.2294 17.3387 41.4796 17.5085 41.6865 17.65C42.2687 18.0447 42.431 19.0368 41.8354 19.3615C41.0001 19.8203 41.2309 20.4653 41.2428 21.1833H41.2503ZM8.5795 18.5125C8.66735 18.6361 8.71946 18.7746 8.77455 18.7761C9.64704 18.8029 9.64555 19.3913 9.60237 20.0214C9.58599 20.2672 9.60237 20.516 9.60237 20.7662C9.60237 21.6719 9.90015 22.0503 10.7935 22.2558C11.1064 22.3345 11.4328 22.3433 11.7496 22.2816C12.0663 22.22 12.3656 22.0893 12.6262 21.899C12.8868 21.7086 13.1023 21.4632 13.2575 21.1802C13.4127 20.8972 13.5037 20.5834 13.5241 20.2613C13.5747 19.3973 13.5569 18.5289 13.5241 17.6634C13.5167 17.4891 13.3082 17.1912 13.1653 17.1733C12.2586 17.0601 11.3444 17.0005 10.4317 16.941C9.92099 16.9067 9.63364 17.1659 9.62173 17.6858C9.61279 18.1073 9.44455 18.3307 8.99937 18.3337C8.86537 18.3322 8.74328 18.4365 8.5795 18.5125ZM41.3232 18.645C40.9808 18.3099 40.5133 18.0641 40.4299 17.729C40.281 17.1018 39.9907 16.8948 39.404 16.9454C38.5673 17.0184 37.7261 17.0571 36.8953 17.1733C36.7315 17.1957 36.4962 17.501 36.4843 17.6887C36.4367 18.4529 36.456 19.2215 36.4665 19.9887C36.4843 21.3516 37.4462 22.3467 38.7177 22.3288C39.9624 22.3124 40.4031 21.7479 40.3927 20.1495C40.3927 19.5016 40.2691 18.8089 41.2384 18.7657C41.2949 18.7657 41.3381 18.6167 41.3232 18.645ZM18.7337 46.0088C18.4434 45.2313 17.9208 44.9825 17.2583 44.9661C16.4423 44.9497 15.6205 44.9557 14.8075 44.9587C13.9142 44.9587 13.874 45.0138 14.0631 46.0014L18.7337 46.0088ZM31.2717 45.9969H36.0109C35.9454 45.5649 36.3295 44.99 35.5404 44.9706C34.5518 44.9482 33.5601 44.9497 32.5715 44.9855C31.9655 45.0078 31.5159 45.3117 31.2673 45.9969H31.2717ZM17.4384 27.3681C17.696 27.8328 17.8464 28.4763 18.1293 28.5419C18.8216 28.7028 19.5765 28.594 20.3343 28.594C20.0053 27.4813 19.0583 27.0672 17.4384 27.3681ZM32.3929 27.3338C30.9218 27.0746 29.9794 27.4932 29.6712 28.6104H31.0007C32.2187 28.6104 32.2187 28.6104 32.3929 27.3338ZM6.18834 34.8816C5.90396 34.0444 5.65234 33.2639 5.36349 32.4982C5.30989 32.3582 5.09103 32.178 4.9734 32.2003C4.89236 32.2321 4.82065 32.2839 4.76495 32.3508C4.70925 32.4177 4.67135 32.4977 4.65478 32.5832C4.61979 33.2232 4.61979 33.8647 4.65478 34.5047C4.6748 34.5884 4.71558 34.6657 4.77335 34.7295C4.83112 34.7933 4.90402 34.8415 4.98531 34.8697C5.38578 34.8962 5.78742 34.9002 6.18834 34.8816ZM45.3581 34.8607C45.3581 34.0355 45.3715 33.2773 45.3432 32.5191C45.3264 32.4433 45.29 32.3732 45.2378 32.3157C45.1856 32.2583 45.1193 32.2154 45.0455 32.1914C44.9671 32.1914 44.89 32.2114 44.8215 32.2494C44.753 32.2875 44.6953 32.3423 44.6539 32.4089C44.3561 33.2177 44.0985 34.0474 43.8275 34.8607H45.3581Z" fill="#F8028E" stroke="#F8028E" stroke-width="0.3"/>
<path d="M34.1438 11.1494C33.7671 13.3496 33.7433 13.3689 31.5576 13.3689C28.6066 13.3689 25.6556 13.3689 22.7046 13.3689C21.3289 13.3689 20.9179 12.9623 20.9179 11.6023C20.912 9.34603 20.912 7.0888 20.9179 4.83058C20.9224 3.55102 21.3467 3.125 22.6108 3.125C25.8596 3.125 29.1083 3.125 32.3571 3.125C33.5765 3.125 34.041 3.60763 34.0455 4.85144C34.0455 5.74519 34.1095 6.63895 34.0276 7.5327C33.9532 8.34304 34.2435 8.81822 34.9508 9.17125C35.5636 9.49757 36.1505 9.87057 36.7062 10.287C36.8714 10.4046 36.931 10.6698 37.0382 10.8664C36.8521 10.9602 36.6689 11.1271 36.4798 11.1345C35.6952 11.1688 34.9076 11.1494 34.1438 11.1494ZM35.0446 10.1976C34.6158 9.91902 34.3463 9.69708 34.041 9.55259C33.3993 9.25467 33.1745 8.78545 33.2117 8.07044C33.2728 6.95772 33.2251 5.83606 33.2266 4.72482C33.2266 4.22283 33.0197 3.91746 32.4822 3.91746C29.1351 3.91746 25.7886 3.91746 22.4426 3.91746C21.9631 3.91746 21.713 4.15878 21.7145 4.65332C21.7145 7.05951 21.7145 9.4642 21.7145 11.8674C21.7145 12.3277 21.9453 12.5482 22.4039 12.5482C25.7747 12.5482 29.1456 12.5601 32.5164 12.5213C32.7517 12.5213 33.112 12.1877 33.1894 11.9374C33.3383 11.4831 33.1388 10.8009 33.4053 10.5357C33.6986 10.2452 34.3522 10.3182 35.0446 10.1976Z" fill="#F8028E" stroke="#F8028E" stroke-width="0.3"/>
<path d="M17.3223 21.5036C16.7059 21.5036 16.0657 21.5349 15.4314 21.4887C15.1753 21.4693 14.9311 21.2816 14.6869 21.1714C14.8358 20.9659 14.9445 20.7052 15.141 20.5666C15.7292 20.1525 16.3768 19.8218 16.9456 19.3869C17.195 19.1814 17.3551 18.8872 17.3923 18.5661C17.4488 17.6024 17.4086 16.6296 17.4161 15.6644C17.4265 14.6053 17.8627 14.1569 18.905 14.1539C21.9086 14.148 24.9112 14.148 27.9128 14.1539C28.9342 14.1539 29.3644 14.5725 29.3719 15.6003C29.3868 17.7602 29.3868 19.9197 29.3719 22.0786C29.3644 23.0826 28.9103 23.5131 27.8934 23.5145C25.0154 23.522 22.1374 23.5145 19.2578 23.5145C17.827 23.5145 17.5158 23.2256 17.4131 21.8209C17.39 21.7132 17.3597 21.6072 17.3223 21.5036ZM16.7982 20.6828C18.1382 20.3983 18.3005 21.1386 18.2588 22.1456C18.2588 22.3244 18.7055 22.6834 18.9526 22.6863C21.9051 22.7251 24.8591 22.7087 27.8115 22.7146C28.3326 22.7146 28.5872 22.5046 28.5843 21.9609C28.5743 19.8755 28.5743 17.79 28.5843 15.7046C28.5843 15.1698 28.3594 14.9345 27.8279 14.936C24.8739 14.9419 21.9205 14.9419 18.9675 14.936C18.43 14.936 18.2022 15.1877 18.2067 15.7091C18.2067 16.3794 18.1501 17.0497 18.2186 17.7185C18.3407 18.9102 18.1918 19.9351 16.9024 20.4251C16.889 20.4311 16.8845 20.4683 16.7982 20.6828Z" fill="#F8028E" stroke="#F8028E" stroke-width="0.3"/>
<path d="M24.5881 38.8901C24.5881 36.5589 24.5657 34.2277 24.6 31.8965C24.6104 31.2634 24.396 31.0951 23.7915 31.1144C22.5036 31.1546 21.2128 31.1457 19.9204 31.1144C19.6866 31.107 19.4588 30.8791 19.2281 30.7525C19.4499 30.6169 19.6747 30.3637 19.8966 30.3622C23.2932 30.3374 26.6904 30.3374 30.0881 30.3622C30.3144 30.3622 30.5347 30.6124 30.764 30.7465C30.5362 30.8746 30.3173 31.1085 30.0806 31.1144C28.818 31.1517 27.5495 31.1755 26.2884 31.1144C25.5439 31.0802 25.3951 31.3453 25.3951 32.041C25.4248 36.5559 25.4099 41.0694 25.4099 45.5828C25.4099 45.7571 25.4606 45.9523 25.398 46.0997C25.2722 46.3492 25.1268 46.5882 24.9633 46.8147C24.8367 46.5809 24.603 46.3485 24.6 46.1131C24.5777 43.703 24.5881 41.2973 24.5881 38.8901Z" fill="#F8028E" stroke="#F8028E" stroke-width="0.3"/>
</g>
<defs>
<clipPath id="clip0_0_242">
<rect width="50" height="50" fill="white" transform="translate(-0.000244141)"/>
</clipPath>
</defs>
</svg>
