<svg width="203" height="40" viewBox="0 0 203 40" fill="none" xmlns="http://www.w3.org/2000/svg">
<g clip-path="url(#clip0_0_149)">
<path d="M21.769 39.3814L8.85163 22.4284V39.3814H0V5.3728H8.85163V20.7792L20.0707 5.3728H30.3628L18.6813 21.5516L32.2677 39.3814H21.769Z" fill="white"/>
<path d="M40.9089 1.51835C41.4237 1.99242 41.8321 2.57047 42.1073 3.2143C42.3824 3.85812 42.5179 4.55307 42.5049 5.25323C42.5145 5.94565 42.3772 6.63222 42.1021 7.26756C41.827 7.9029 41.4203 8.47252 40.9089 8.93876C39.8651 9.91166 38.4931 10.4546 37.067 10.4592C35.6409 10.4637 34.2655 9.92962 33.2154 8.96344C32.7083 8.4908 32.3069 7.91598 32.0377 7.27681C31.7685 6.63764 31.6376 5.94862 31.6536 5.25513C31.6387 4.55758 31.77 3.86466 32.039 3.22104C32.308 2.57742 32.7088 1.99739 33.2154 1.51835C33.7211 1.02194 34.3208 0.631878 34.9794 0.371132C35.6379 0.110387 36.3419 -0.015764 37.0499 0.000111507C37.7613 -0.0142945 38.4686 0.112443 39.131 0.373018C39.7933 0.633593 40.3976 1.02285 40.9089 1.51835ZM41.5269 39.3795H32.6752V13.6168H41.5269V39.3795Z" fill="white"/>
<path d="M66.827 15.858C68.6112 17.7647 69.5033 20.3153 69.5033 23.51V39.3813H60.6536V24.7986C60.6536 23.6599 60.3017 22.7407 59.5978 22.0411C59.2433 21.6901 58.8208 21.4154 58.3563 21.234C57.8918 21.0525 57.3951 20.9681 56.8969 20.9859C55.7988 20.9859 54.9067 21.3376 54.2205 22.0411C53.5344 22.7445 53.1913 23.6637 53.1913 24.7986V39.3813H44.3397V13.6167H52.4199V15.729C54.3393 13.9096 56.7579 12.9993 59.6755 12.998C62.6602 12.998 65.044 13.9514 66.827 15.858Z" fill="white"/>
<path d="M81.1469 39.3812H72.2953V0.734375H81.1469V39.3812Z" fill="white"/>
<path d="M92.5707 1.51823C93.0851 1.99253 93.4934 2.57062 93.7685 3.21439C94.0435 3.85816 94.1792 4.553 94.1666 5.25311C94.1757 5.94546 94.0382 6.63188 93.7632 7.26715C93.4881 7.90241 93.0816 8.47209 92.5707 8.93864C91.5268 9.91154 90.1548 10.4545 88.7287 10.459C87.3026 10.4636 85.9272 9.9295 84.8771 8.96331C84.3684 8.49115 83.9655 7.91632 83.6949 7.27677C83.4244 6.63722 83.2924 5.94749 83.3077 5.25311C83.2941 4.55532 83.4267 3.86241 83.697 3.21911C83.9673 2.5758 84.3694 1.99638 84.8771 1.51823C85.3821 1.02252 85.9809 0.63285 86.6384 0.372125C87.2959 0.111401 87.9989 -0.0151221 88.7059 -1.03051e-05C89.4183 -0.0150675 90.1266 0.11135 90.79 0.371939C91.4533 0.632529 92.0585 1.02213 92.5707 1.51823ZM93.1886 39.3794H84.3464V13.6167H93.198L93.1886 39.3794Z" fill="white"/>
<path d="M115.369 16.7595L111.199 22.1701C109.45 20.6936 107.632 19.9554 105.744 19.9554C104.543 19.9554 103.943 20.2818 103.943 20.9346C103.943 21.1429 104.016 21.3447 104.15 21.504C104.294 21.6826 104.48 21.8238 104.69 21.9158C104.912 22.0202 105.247 22.1568 105.693 22.3295L108.267 23.36C110.838 24.3912 112.734 25.49 113.953 26.6565C115.172 27.823 115.781 29.421 115.78 31.4504C115.78 34.0946 114.785 36.1822 112.795 37.7131C110.805 39.244 108.248 40.0088 105.126 40.0076C100.255 40.0076 96.5669 38.3584 94.0624 35.06L98.183 29.7955C100.379 31.9248 102.747 32.9895 105.285 32.9895C106.794 32.9895 107.548 32.6099 107.548 31.8508C107.548 31.4029 107.051 30.9734 106.057 30.5622L103.176 29.3761C100.636 28.3449 98.7573 27.2113 97.5405 25.9752C96.3236 24.7391 95.7165 23.1101 95.719 21.0884C95.719 18.5428 96.625 16.5507 98.437 15.1122C100.249 13.6736 102.668 12.9518 105.693 12.9468C109.707 12.9468 112.933 14.2177 115.369 16.7595Z" fill="white"/>
<path d="M135.333 31.9608V39.3812C133.631 39.7918 131.887 39.9994 130.136 39.9999C126.498 39.9999 123.702 39.1237 121.747 37.3714C119.792 35.6191 118.814 33.0084 118.813 29.5392V21.037H114.903V13.6166H118.813V7.43359H127.664V13.6166H134.562V21.037H127.664V28.6567C127.664 29.8941 127.999 30.7703 128.669 31.2852C129.339 31.8001 130.476 32.0576 132.081 32.0576C132.397 32.0677 133.481 32.0355 135.333 31.9608Z" fill="white"/>
<path d="M160.959 29.5905H144.492C145.452 31.5491 147.374 32.5283 150.256 32.5283C152.555 32.5283 154.802 31.8584 156.998 30.5186L160.188 36.546C157.256 38.8068 153.654 40.0224 149.953 40C145.734 40 142.269 38.7202 139.558 36.1607C136.848 33.6012 135.493 30.3807 135.493 26.499C135.493 22.687 136.813 19.4835 139.454 16.8885C142.095 14.2936 145.354 12.9968 149.232 12.998C152.939 12.998 155.915 14.1835 158.162 16.5545C160.409 18.9255 161.532 21.8108 161.532 25.2104C161.539 26.6896 161.347 28.1631 160.959 29.5905ZM145.959 20.9593C145.118 21.6299 144.526 22.5832 144.183 23.8193H153.137C153.14 23.2857 153.027 22.7578 152.805 22.2726C152.583 21.7875 152.258 21.3567 151.852 21.0106C151.02 20.3039 149.957 19.9283 148.867 19.9554C147.81 19.9403 146.782 20.2954 145.959 20.9593Z" fill="white"/>
<path d="M189.931 0.734375V39.3812H181.851V36.7015C180.24 38.8992 177.787 39.9987 174.493 39.9999C170.89 39.9999 167.931 38.7455 165.615 36.2366C163.298 33.7277 162.14 30.5014 162.14 26.5578C162.14 22.6066 163.298 19.3607 165.615 16.8202C167.931 14.2796 170.89 13.0081 174.493 13.0056C177.203 13.0056 179.399 13.7957 181.079 15.3759V0.734375H189.931ZM179.768 30.5697C180.746 29.6411 181.234 28.3012 181.233 26.5502C181.232 24.7992 180.743 23.4422 179.768 22.4794C179.308 22.0132 178.758 21.645 178.152 21.3971C177.546 21.1493 176.897 21.0268 176.242 21.0371C175.584 21.028 174.931 21.151 174.322 21.3987C173.712 21.6464 173.158 22.0139 172.692 22.4794C171.698 23.441 171.2 24.7808 171.199 26.499C171.197 28.2171 171.689 29.5569 172.673 30.5185C173.626 31.4352 174.893 31.9515 176.214 31.961C177.535 31.9706 178.81 31.4726 179.775 30.5697H179.768Z" fill="white"/>
<path d="M201.379 30.1314C201.909 30.671 202.325 31.3115 202.604 32.0149C202.882 32.7183 203.017 33.4704 203 34.2268C203 35.8716 202.46 37.2462 201.379 38.3508C200.299 39.4553 198.935 40.005 197.287 40C195.571 40 194.165 39.4502 193.068 38.3508C191.971 37.2513 191.422 35.8767 191.421 34.2268C191.405 33.4682 191.543 32.7142 191.826 32.0103C192.109 31.3064 192.531 30.6673 193.068 30.1314C194.166 29.0155 195.572 28.4575 197.287 28.4575C198.935 28.4638 200.299 29.0218 201.379 30.1314Z" fill="white"/>
</g>
<defs>
<clipPath id="clip0_0_149">
<rect width="203" height="40" fill="white"/>
</clipPath>
</defs>
</svg>
