<svg width="50" height="50" viewBox="0 0 50 50" fill="none" xmlns="http://www.w3.org/2000/svg">
<path d="M14.5841 25H22.9175V16.6667H25.0008V25H33.3341V27.0833H25.0008V35.4167H22.9175V27.0833H14.5841V25ZM23.9591 6.25C29.2082 6.25 34.2423 8.33519 37.954 12.0468C41.6656 15.7585 43.7508 20.7926 43.7508 26.0417C43.7508 31.2907 41.6656 36.3248 37.954 40.0365C34.2423 43.7482 29.2082 45.8333 23.9591 45.8333C18.7101 45.8333 13.676 43.7482 9.96433 40.0365C6.25267 36.3248 4.16748 31.2907 4.16748 26.0417C4.16748 20.7926 6.25267 15.7585 9.96433 12.0468C13.676 8.33519 18.7101 6.25 23.9591 6.25V6.25ZM23.9591 8.33333C19.2626 8.33333 14.7584 10.199 11.4375 13.52C8.11651 16.8409 6.25081 21.3451 6.25081 26.0417C6.25081 30.7382 8.11651 35.2424 11.4375 38.5634C14.7584 41.8843 19.2626 43.75 23.9591 43.75C28.6557 43.75 33.1599 41.8843 36.4808 38.5634C39.8018 35.2424 41.6675 30.7382 41.6675 26.0417C41.6675 21.3451 39.8018 16.8409 36.4808 13.52C33.1599 10.199 28.6557 8.33333 23.9591 8.33333Z" fill="#F8028E"/>
</svg>
